<?xml version="1.0" encoding="utf-8"?>
<!-- Generator: Adobe Illustrator 27.2.0, SVG Export Plug-In . SVG Version: 6.00 Build 0)  -->
<svg version="1.1" id="Layer_1" xmlns="http://www.w3.org/2000/svg" xmlns:xlink="http://www.w3.org/1999/xlink" x="0px" y="0px"
	 viewBox="0 0 301 115" style="enable-background:new 0 0 301 115;" xml:space="preserve">
<style type="text/css">
	.st0{fill:#333333;}
</style>
<path class="st0" d="M106.6,46.7L91.5,0.3h-3.2L73.6,46.7c-1.3,3.9-2.6,4.7-6.5,4.7V53h14v-1.5c-6,0-6-1-4.9-4.7l2.9-9.4h16.4
	l3.1,9.4c1.2,3.7,1.2,4.7-4.8,4.7V53h19.4v-1.5C109.3,51.5,107.9,50.6,106.6,46.7z M80,34.6l7.2-22.7h0.2l7.4,22.7H80z M120.9,54.3
	c2,0,3.8-1.7,3.8-3.8c0-2-1.7-3.8-3.8-3.8c-2.1,0-3.8,1.7-3.8,3.8C117.1,52.6,118.7,54.3,120.9,54.3z M150,1.8h-20.9v1.5
	c6,0,6.8,1.2,6.8,5.1v38c0,3.9-0.9,5.1-6.8,5.1V53h33.6l0.4-1.5l3.3-12.8l-1.5-0.4c-2.6,10.2-4.2,12.1-8.1,12.1h-9.7
	c-3.2,0-4-0.6-4-4.3V8.4c0-3.9,0.9-5.1,6.8-5.1V1.8z M173.7,54.3c2,0,3.8-1.7,3.8-3.8c0-2-1.7-3.8-3.8-3.8c-2.1,0-3.8,1.7-3.8,3.8
	C169.9,52.6,171.6,54.3,173.7,54.3z M181.9,53h19.6c10.2,0,18.6-3.3,18.6-13.4c0-7.2-5.1-12.4-13.2-12.9v-0.2c6.7-0.8,11-5,11-11.9
	c0-8.8-6.3-12.9-15.7-12.9h-20.3v1.5c6,0,6.8,1.2,6.8,5.1v38c0,3.9-0.9,5.1-6.8,5.1V53z M195.9,25.1v-20c1.7-0.5,3-0.6,4.8-0.6
	c5.1,0,9.8,3,9.8,10.3c0,7.4-4.7,10.7-9.8,10.7C198.9,25.4,197.6,25.4,195.9,25.1z M195.9,49.7V28.4c1.7-0.3,3-0.3,4.8-0.3
	c4.9,0,12,2.4,12,11.3c0,8.8-6.3,11-12.2,11C199.2,50.4,197.6,50.2,195.9,49.7z M40.5,92.7L25.4,46.3h-3.2L7.5,92.7
	c-1.3,3.9-2.6,4.7-6.5,4.7V99h14v-1.5c-6,0-6-1-4.9-4.7l2.9-9.4h16.4l3.1,9.4c1.2,3.7,1.2,4.7-4.8,4.7V99h19.4v-1.5
	C43.2,97.5,41.8,96.6,40.5,92.7z M13.9,80.6l7.2-22.7h0.2l7.4,22.7H13.9z M63.4,72.2c0.2,2.4,1.5,3.5,3.7,3.5c2.2,0,3.3-1.3,3.3-3.5
	c0-4.2-4.2-8.4-9.9-8.4c-7.9,0-13.5,7.2-13.5,18.8c0,10.6,4.6,17.5,12.5,17.5c6.5,0,10.5-4.9,11.8-14.6h-1.5
	c-1.9,7.9-4.4,10.6-7.7,10.6c-5.1,0-8.3-5.8-8.3-15.1c0-8.7,1.9-14.5,6.2-14.5C62.4,66.6,63.2,68.8,63.4,72.2z M91.3,72.2
	c0.2,2.4,1.5,3.5,3.7,3.5c2.2,0,3.3-1.3,3.3-3.5c0-4.2-4.2-8.4-9.9-8.4c-7.9,0-13.5,7.2-13.5,18.8c0,10.6,4.6,17.5,12.5,17.5
	c6.5,0,10.5-4.9,11.8-14.6h-1.5c-1.9,7.9-4.4,10.6-7.7,10.6c-5.1,0-8.3-5.8-8.3-15.1c0-8.7,1.9-14.5,6.2-14.5
	C90.4,66.6,91.1,68.8,91.3,72.2z M117.4,100.3c8.9,0,14.4-7.8,14.4-18.2c0-10.3-5.5-18.2-14.4-18.2c-9,0-14.5,7.9-14.5,18.2
	C102.9,92.5,108.4,100.3,117.4,100.3z M118.7,97.6c-4.9,0.4-7.9-4.6-8.9-14.8c-0.8-10.2,1.3-15.7,6.1-16.1c4.9-0.4,8,4.5,8.9,14.8
	C125.7,91.7,123.6,97.1,118.7,97.6z M156,99.4l0.9,0.9l9.2-4.6l-0.7-1.3c-3.5,1.7-3.3,0.9-3.3-3.2V65.2l-0.9-0.8l-4.5,1.2l-5.2,1.4
	l0.4,1.5c3.9-1,4.2-0.3,4.2,3.9v18.8c-2.4,3-4.7,5.2-7.3,5.2c-2.5,0-3.5-1.9-3.5-5.2V65.2l-0.9-0.8l-4.5,1.2l-5.1,1.4l0.4,1.5
	c3.9-1,4.1-0.3,4.1,3.9v18.8c0,6,2.2,9.2,6.8,9.2c4.3,0,7.3-3,9.8-6.6h0.2V99.4z M178.1,64.8l-0.9-0.9l-4.5,2.3l-4.8,2.4l0.7,1.3
	c3.6-1.8,3.5-1,3.5,3.2v19.3c0,4.1-0.6,5.1-4.5,5.1V99h14.7v-1.5c-3.6,0-4.2-1-4.2-5.1V73.2c2.3-3,5-5.2,7.5-5.2s3.5,1.8,3.5,5.1
	v19.3c0,4.1-0.6,5.1-4.2,5.1V99h14.7v-1.5c-3.9,0-4.5-1-4.5-5.1V73.1c0-5.9-2.1-9.2-6.8-9.2c-4.2,0-7.6,3.1-10,6.6h-0.2V64.8z
	 M217.9,84.9c-0.1,8.4-1.3,11.6-4.2,11.6c-3.5,0-3.9-3.8-3.9-10.1V67.9h7.4v-2.7h-7.4v-9.2h-2c-0.6,6.7-3.1,9-9,9.2v2.7h5v20.5
	c0,8.6,3,11.8,8.1,11.8c6.1,0,7.4-5.4,7.5-15.4H217.9z M228.3,54.3c2.1,0,3.8-1.7,3.8-3.7c0-2.1-1.7-3.8-3.8-3.8
	c-2,0-3.7,1.7-3.7,3.8C224.6,52.6,226.3,54.3,228.3,54.3z M231.6,92.4V64.8l-0.9-0.9l-4.5,2.3l-4.8,2.4l0.7,1.3
	c3.6-1.8,3.5-1,3.5,3.2v19.3c0,4.1-0.6,5.1-4.5,5.1V99h15v-1.5C232.2,97.5,231.6,96.5,231.6,92.4z M248.4,64.8l-0.9-0.9l-4.5,2.3
	l-4.8,2.4l0.7,1.3c3.6-1.8,3.5-1,3.5,3.2v19.3c0,4.1-0.6,5.1-4.5,5.1V99h14.7v-1.5c-3.6,0-4.2-1-4.2-5.1V73.2c2.3-3,5-5.2,7.5-5.2
	c2.5,0,3.5,1.8,3.5,5.1v19.3c0,4.1-0.6,5.1-4.2,5.1V99h14.7v-1.5c-3.9,0-4.5-1-4.5-5.1V73.1c0-5.9-2.1-9.2-6.8-9.2
	c-4.2,0-7.6,3.1-10,6.6h-0.2V64.8z M285.3,93.6c-6.7,0-9.3-0.9-9.3-3.1c0-1.2,0.9-2.2,2.4-3.6c1.7,1,3.6,1.5,5.8,1.5
	c6.3,0,11.6-4.7,11.6-12.2c0-3.6-1.3-6.7-3.3-8.8l0.6,0.4c1.6-0.3,2.9-0.4,4.9-0.4c1.3,0,2-0.4,2-1.6s-0.7-1.9-2.4-1.9
	c-2.4,0-4.9,0.8-7.1,1.9c-1.9-1.2-4.1-1.9-6.4-1.9c-6.4,0-11.6,4.7-11.6,12.2c0,4.3,1.7,7.7,4.5,9.8c-2.2,2.1-4.3,4.4-4.3,7
	c0,2.3,1.2,3.8,3.5,4.5c-3.5,2.6-6.3,5.4-6.3,9.2c0,5.5,5.8,7.7,12.4,7.7c9.9,0,17.5-5.8,17.5-12.3
	C299.7,95.8,294.5,93.6,285.3,93.6z M283.2,66.4c3.6-0.4,5.7,2.8,6.3,9.3c0.6,6.4-1,9.9-4.6,10.1c-3.5,0.3-5.8-2.7-6.3-9.2
	C278.1,70.1,279.6,66.7,283.2,66.4z M284.7,109.4c-6.7,0-10.4-2-10.4-5.2c0-2,1-3.6,3.8-6.2c2,0.4,4.6,0.5,7.8,0.5
	c7.3,0,11.2,0.7,11.2,4.3C297.1,107.1,291.9,109.4,284.7,109.4z"/>
</svg>
